<svg width="120" height="43" viewBox="0 0 120 43" fill="none" xmlns="http://www.w3.org/2000/svg">
<rect x="0.3" y="0.3" width="119.4" height="36.9" rx="14.7" fill="#1DA756" stroke="#222831" stroke-width="0.6" stroke-linejoin="round"/>
<g filter="url(#filter0_d_4_6)">
<path d="M8.13 14.9H9.95L12.212 21.894H12.238L14.5 14.9H16.32L13.083 24H11.367L8.13 14.9ZM17.3651 14.9H19.1331V24H17.3651V14.9ZM20.6979 22.596V21.296H22.4399V22.063L22.8689 22.492H25.5599L26.0019 22.05V20.542L25.5729 20.113H22.1279L20.7239 18.709V16.304L22.1279 14.9H26.2359L27.6399 16.304V17.617H25.8979V16.837L25.4689 16.408H22.8949L22.4659 16.837V18.176L22.8949 18.605H26.3399L27.7439 20.009V22.57L26.3139 24H22.1019L20.6979 22.596ZM29.2352 14.9H31.0032V24H29.2352V14.9ZM32.763 14.9H38.47L39.77 16.2V18.748L39.25 19.281L40.173 20.217V22.596L38.769 24H32.763V14.9ZM37.56 18.709L38.028 18.241V16.837L37.573 16.382H34.492V18.709H37.56ZM37.872 22.518L38.431 21.959V20.685L37.872 20.126H34.492V22.518H37.872ZM41.472 14.9H43.24V22.505H47.79V24H41.472V14.9ZM48.7591 14.9H55.3371V16.395H50.5271V18.696H54.9601V20.165H50.5271V22.505H55.3371V24H48.7591V14.9Z" fill="white"/>
</g>
<defs>
<filter id="filter0_d_4_6" x="4.13" y="14.9" width="55.207" height="17.1" filterUnits="userSpaceOnUse" color-interpolation-filters="sRGB">
<feFlood flood-opacity="0" result="BackgroundImageFix"/>
<feColorMatrix in="SourceAlpha" type="matrix" values="0 0 0 0 0 0 0 0 0 0 0 0 0 0 0 0 0 0 127 0" result="hardAlpha"/>
<feOffset dy="4"/>
<feGaussianBlur stdDeviation="2"/>
<feComposite in2="hardAlpha" operator="out"/>
<feColorMatrix type="matrix" values="0 0 0 0 0 0 0 0 0 0 0 0 0 0 0 0 0 0 0.25 0"/>
<feBlend mode="normal" in2="BackgroundImageFix" result="effect1_dropShadow_4_6"/>
<feBlend mode="normal" in="SourceGraphic" in2="effect1_dropShadow_4_6" result="shape"/>
</filter>
</defs>
</svg>
