<svg width="80" height="43" viewBox="0 0 80 43" fill="none" xmlns="http://www.w3.org/2000/svg">
<rect x="0.3" y="0.3" width="79.4" height="37.4" rx="14.7" fill="#30475E" stroke="#222831" stroke-width="0.6" stroke-linejoin="round"/>
<g filter="url(#filter0_d_4_7)">
<path d="M26.845 14.9H28.613V18.709H32.461V14.9H34.229V24H32.461V20.217H28.613V24H26.845V14.9ZM35.9871 14.9H37.7551V24H35.9871V14.9ZM39.5149 14.9H45.3389L46.8989 16.46V22.44L45.3389 24H39.5149V14.9ZM44.4679 22.492L45.1309 21.829V17.071L44.4679 16.408H41.2829V22.492H44.4679ZM48.4651 14.9H54.2891L55.8491 16.46V22.44L54.2891 24H48.4651V14.9ZM53.4181 22.492L54.0811 21.829V17.071L53.4181 16.408H50.2331V22.492H53.4181ZM57.4153 14.9H63.9933V16.395H59.1833V18.696H63.6163V20.165H59.1833V22.505H63.9933V24H57.4153V14.9ZM65.2991 14.9H66.8851L70.9411 21.075H70.9671V14.9H72.6701V24H71.0841L67.0281 17.838H67.0021V24H65.2991V14.9Z" fill="white"/>
</g>
<defs>
<filter id="filter0_d_4_7" x="22.845" y="14.9" width="53.8251" height="17.1" filterUnits="userSpaceOnUse" color-interpolation-filters="sRGB">
<feFlood flood-opacity="0" result="BackgroundImageFix"/>
<feColorMatrix in="SourceAlpha" type="matrix" values="0 0 0 0 0 0 0 0 0 0 0 0 0 0 0 0 0 0 127 0" result="hardAlpha"/>
<feOffset dy="4"/>
<feGaussianBlur stdDeviation="2"/>
<feComposite in2="hardAlpha" operator="out"/>
<feColorMatrix type="matrix" values="0 0 0 0 0 0 0 0 0 0 0 0 0 0 0 0 0 0 0.25 0"/>
<feBlend mode="normal" in2="BackgroundImageFix" result="effect1_dropShadow_4_7"/>
<feBlend mode="normal" in="SourceGraphic" in2="effect1_dropShadow_4_7" result="shape"/>
</filter>
</defs>
</svg>
